<svg xmlns="http://www.w3.org/2000/svg" version="1.1" xmlns:xlink="http://www.w3.org/1999/xlink" xmlns:svgjs="http://svgjs.dev/svgjs" width="1440" height="560" preserveAspectRatio="none" viewBox="0 0 1440 560"><g mask="url(&quot;#SvgjsMask3170&quot;)" fill="none"><rect width="1440" height="560" x="0" y="0" fill="rgba(252, 254, 255, 1)"></rect><g transform="translate(0, -280)" stroke-linecap="round"><path d="M271.5 247.815 L271.5 312.185" stroke-width="17.25" stroke="rgba(0, 152, 255, 1)"></path><path d="M294.5 230.095 L294.5 329.905" stroke-width="17.25" stroke="rgba(255, 67, 0, 1)"></path><path d="M317.5 235.825 L317.5 270.325" stroke-width="17.25" stroke="rgba(255, 158, 0, 1)"></path><path d="M317.5 296.2 L317.5 324.175" stroke-width="17.25" stroke="rgba(255, 158, 0, 1)"></path><path d="M340.5 220.565 L340.5 255.065" stroke-width="17.25" stroke="rgba(82, 0, 255, 1)"></path><path d="M340.5 280.94 L340.5 339.435" stroke-width="17.25" stroke="rgba(255, 158, 0, 1)"></path><path d="M363.5 116.995 L363.5 168.745" stroke-width="17.25" stroke="#dd1133"></path><path d="M363.5 194.62 L363.5 263.62" stroke-width="17.25" stroke="rgba(82, 0, 255, 1)"></path><path d="M363.5 289.495 L363.5 443.005" stroke-width="17.25" stroke="#dd1133"></path><path d="M386.5 235.775 L386.5 324.225" stroke-width="17.25" stroke="rgba(82, 0, 255, 1)"></path><path d="M409.5 218.265 L409.5 270.015" stroke-width="17.25" stroke="#dd1133"></path><path d="M409.5 295.89 L409.5 341.735" stroke-width="17.25" stroke="rgba(255, 170, 0, 1)"></path><path d="M432.5 263.145 L432.5 296.855" stroke-width="17.25" stroke="rgba(255, 67, 0, 1)"></path><path d="M455.5 184.625 L455.5 236.375" stroke-width="17.25" stroke="rgba(82, 0, 255, 1)"></path><path d="M455.5 262.25 L455.5 375.375" stroke-width="17.25" stroke="#dd1133"></path><path d="M478.5 164.285 L478.5 233.285" stroke-width="17.25" stroke="rgba(255, 158, 0, 1)"></path><path d="M478.5 259.15999999999997 L478.5 395.715" stroke-width="17.25" stroke="rgba(255, 170, 0, 1)"></path><path d="M501.5 264.235 L501.5 295.765" stroke-width="17.25" stroke="rgba(82, 0, 255, 1)"></path><path d="M524.5 139.215 L524.5 420.785" stroke-width="17.25" stroke="#dd1133"></path><path d="M547.5 238.495 L547.5 255.745" stroke-width="17.25" stroke="rgba(0, 133, 255, 1)"></path><path d="M547.5 281.62 L547.5 321.505" stroke-width="17.25" stroke="rgba(255, 158, 0, 1)"></path><path d="M570.5 248.275 L570.5 311.735" stroke-width="17.25" stroke="rgba(82, 0, 255, 1)"></path><path d="M593.5 268.585 L593.5 291.415" stroke-width="17.25" stroke="rgba(255, 67, 0, 1)"></path><path d="M616.5 221.305 L616.5 238.555" stroke-width="17.25" stroke="#dd1133"></path><path d="M616.5 264.43 L616.5 281.68" stroke-width="17.25" stroke="rgba(0, 152, 255, 1)"></path><path d="M616.5 307.555 L616.5 338.695" stroke-width="17.25" stroke="rgba(255, 158, 0, 1)"></path><path d="M639.5 237.255 L639.5 254.505" stroke-width="17.25" stroke="#dd1133"></path><path d="M639.5 280.38 L639.5 322.745" stroke-width="17.25" stroke="#dd1133"></path><path d="M662.5 194.745 L662.5 211.995" stroke-width="17.25" stroke="rgba(255, 170, 0, 1)"></path><path d="M662.5 237.87 L662.5 306.87" stroke-width="17.25" stroke="#dd1133"></path><path d="M662.5 332.745 L662.5 365.255" stroke-width="17.25" stroke="rgba(0, 133, 255, 1)"></path><path d="M685.5 157.965 L685.5 261.46500000000003" stroke-width="17.25" stroke="rgba(255, 67, 0, 1)"></path><path d="M685.5 287.34000000000003 L685.5 321.84000000000003" stroke-width="17.25" stroke="rgba(255, 170, 0, 1)"></path><path d="M685.5 347.71500000000003 L685.5 402.035" stroke-width="17.25" stroke="#dd1133"></path><path d="M708.5 127.115 L708.5 432.885" stroke-width="17.25" stroke="rgba(255, 170, 0, 1)"></path><path d="M731.5 114.795 L731.5 445.205" stroke-width="17.25" stroke="rgba(255, 158, 0, 1)"></path><path d="M754.5 128.065 L754.5 162.565" stroke-width="17.25" stroke="rgba(0, 133, 255, 1)"></path><path d="M754.5 188.44 L754.5 343.69" stroke-width="17.25" stroke="#dd1133"></path><path d="M754.5 369.565 L754.5 431.935" stroke-width="17.25" stroke="rgba(0, 152, 255, 1)"></path><path d="M777.5 251.205 L777.5 308.795" stroke-width="17.25" stroke="rgba(0, 133, 255, 1)"></path><path d="M800.5 182.495 L800.5 199.745" stroke-width="17.25" stroke="rgba(255, 170, 0, 1)"></path><path d="M800.5 225.62 L800.5 294.62" stroke-width="17.25" stroke="rgba(255, 170, 0, 1)"></path><path d="M800.5 320.495 L800.5 377.505" stroke-width="17.25" stroke="rgba(0, 152, 255, 1)"></path><path d="M823.5 129.66500000000002 L823.5 181.41500000000002" stroke-width="17.25" stroke="rgba(82, 0, 255, 1)"></path><path d="M823.5 207.29000000000002 L823.5 362.54" stroke-width="17.25" stroke="rgba(82, 0, 255, 1)"></path><path d="M823.5 388.415 L823.5 430.335" stroke-width="17.25" stroke="rgba(82, 0, 255, 1)"></path><path d="M846.5 264.345 L846.5 295.645" stroke-width="17.25" stroke="rgba(0, 152, 255, 1)"></path><path d="M869.5 261.885 L869.5 298.115" stroke-width="17.25" stroke="rgba(255, 158, 0, 1)"></path><path d="M892.5 267.665 L892.5 292.335" stroke-width="17.25" stroke="rgba(255, 67, 0, 1)"></path><path d="M915.5 236.125 L915.5 323.875" stroke-width="17.25" stroke="rgba(255, 158, 0, 1)"></path><path d="M938.5 126.655 L938.5 264.655" stroke-width="17.25" stroke="#dd1133"></path><path d="M938.5 290.53 L938.5 433.345" stroke-width="17.25" stroke="rgba(82, 0, 255, 1)"></path><path d="M961.5 238.745 L961.5 255.995" stroke-width="17.25" stroke="rgba(255, 67, 0, 1)"></path><path d="M961.5 281.87 L961.5 321.255" stroke-width="17.25" stroke="rgba(255, 67, 0, 1)"></path><path d="M984.5 168.555 L984.5 185.805" stroke-width="17.25" stroke="rgba(255, 170, 0, 1)"></path><path d="M984.5 211.68 L984.5 228.93" stroke-width="17.25" stroke="rgba(0, 133, 255, 1)"></path><path d="M984.5 254.805 L984.5 391.445" stroke-width="17.25" stroke="rgba(0, 133, 255, 1)"></path><path d="M1007.5 237.245 L1007.5 322.755" stroke-width="17.25" stroke="rgba(255, 170, 0, 1)"></path><path d="M1030.5 141.075 L1030.5 175.575" stroke-width="17.25" stroke="rgba(0, 152, 255, 1)"></path><path d="M1030.5 201.45 L1030.5 253.2" stroke-width="17.25" stroke="rgba(0, 133, 255, 1)"></path><path d="M1030.5 279.075 L1030.5 418.925" stroke-width="17.25" stroke="rgba(255, 67, 0, 1)"></path><path d="M1053.5 145.095 L1053.5 283.095" stroke-width="17.25" stroke="rgba(0, 152, 255, 1)"></path><path d="M1053.5 308.97 L1053.5 414.895" stroke-width="17.25" stroke="#dd1133"></path><path d="M1076.5 142.465 L1076.5 194.215" stroke-width="17.25" stroke="rgba(0, 152, 255, 1)"></path><path d="M1076.5 220.09 L1076.5 417.525" stroke-width="17.25" stroke="rgba(0, 133, 255, 1)"></path><path d="M1099.5 142.885 L1099.5 417.115" stroke-width="17.25" stroke="rgba(255, 170, 0, 1)"></path><path d="M1122.5 215.255 L1122.5 249.755" stroke-width="17.25" stroke="rgba(0, 152, 255, 1)"></path><path d="M1122.5 275.63 L1122.5 292.88" stroke-width="17.25" stroke="rgba(0, 152, 255, 1)"></path><path d="M1122.5 318.755 L1122.5 344.745" stroke-width="17.25" stroke="#dd1133"></path><path d="M1145.5 142.135 L1145.5 280.135" stroke-width="17.25" stroke="rgba(255, 170, 0, 1)"></path><path d="M1145.5 306.01 L1145.5 417.865" stroke-width="17.25" stroke="rgba(82, 0, 255, 1)"></path><path d="M1168.5 215.955 L1168.5 233.205" stroke-width="17.25" stroke="#dd1133"></path><path d="M1168.5 259.08000000000004 L1168.5 293.58000000000004" stroke-width="17.25" stroke="rgba(255, 158, 0, 1)"></path><path d="M1168.5 319.45500000000004 L1168.5 344.045" stroke-width="17.25" stroke="rgba(0, 133, 255, 1)"></path></g></g><defs><mask id="SvgjsMask3170"><rect width="1440" height="560" fill="#ffffff"></rect></mask></defs></svg>